<?xml version="1.0" standalone="no"?>
<svg xmlns:xlink="http://www.w3.org/1999/xlink" id="wave" style="transform:rotate(180deg); transition: 0.3s" viewBox="0 0 1440 100" version="1.1" xmlns="http://www.w3.org/2000/svg"><defs><linearGradient id="sw-gradient-0" x1="0" x2="0" y1="1" y2="0"><stop stop-color="rgba(255, 254, 158, 1)" offset="0%"/><stop stop-color="rgba(255, 254, 158, 1)" offset="100%"/></linearGradient></defs><path style="transform:translate(0, 0px); opacity:1" fill="url(#sw-gradient-0)" d="M0,20L40,31.7C80,43,160,67,240,73.3C320,80,400,70,480,66.7C560,63,640,67,720,63.3C800,60,880,50,960,41.7C1040,33,1120,27,1200,35C1280,43,1360,67,1440,76.7C1520,87,1600,83,1680,80C1760,77,1840,73,1920,75C2000,77,2080,83,2160,76.7C2240,70,2320,50,2400,46.7C2480,43,2560,57,2640,65C2720,73,2800,77,2880,71.7C2960,67,3040,53,3120,46.7C3200,40,3280,40,3360,43.3C3440,47,3520,53,3600,48.3C3680,43,3760,27,3840,20C3920,13,4000,17,4080,26.7C4160,37,4240,53,4320,65C4400,77,4480,83,4560,85C4640,87,4720,83,4800,83.3C4880,83,4960,87,5040,81.7C5120,77,5200,63,5280,60C5360,57,5440,63,5520,65C5600,67,5680,63,5720,61.7L5760,60L5760,100L5720,100C5680,100,5600,100,5520,100C5440,100,5360,100,5280,100C5200,100,5120,100,5040,100C4960,100,4880,100,4800,100C4720,100,4640,100,4560,100C4480,100,4400,100,4320,100C4240,100,4160,100,4080,100C4000,100,3920,100,3840,100C3760,100,3680,100,3600,100C3520,100,3440,100,3360,100C3280,100,3200,100,3120,100C3040,100,2960,100,2880,100C2800,100,2720,100,2640,100C2560,100,2480,100,2400,100C2320,100,2240,100,2160,100C2080,100,2000,100,1920,100C1840,100,1760,100,1680,100C1600,100,1520,100,1440,100C1360,100,1280,100,1200,100C1120,100,1040,100,960,100C880,100,800,100,720,100C640,100,560,100,480,100C400,100,320,100,240,100C160,100,80,100,40,100L0,100Z"/></svg>